<svg width="63" height="23" viewBox="0 0 63 23" fill="none" xmlns="http://www.w3.org/2000/svg">
<path d="M6.88843 22.2463C5.02796 22.1727 3.50536 21.6632 2.31511 20.7177C2.0881 20.5372 1.54668 19.9955 1.36521 19.7669C0.882443 19.1602 0.554463 18.5693 0.335273 17.914C-0.338397 15.8967 0.00867302 13.2494 1.32657 10.3438C2.45541 7.85657 4.1972 5.38982 7.23619 1.97317C7.68354 1.47039 9.01685 0 9.02513 0C9.02858 0 8.95613 0.12604 8.86459 0.27945C8.07431 1.60264 7.39834 3.16181 7.02988 4.51099C6.43832 6.6769 6.50962 8.53484 7.23895 9.97602C7.74196 10.9687 8.60446 11.8287 9.57414 12.3041C11.272 13.136 13.7576 13.2048 16.7934 12.5053C17.0025 12.457 27.3587 9.70784 39.8076 6.39584C52.2562 3.08384 62.4436 0.37582 62.4452 0.37835C62.4486 0.38111 33.5229 12.759 18.5071 19.1802C16.1289 20.1968 15.493 20.4534 14.3754 20.8461C11.5174 21.8495 8.95751 22.3284 6.88843 22.2463Z" fill="white"/>
</svg>
